<svg width="40" height="40" viewBox="0 0 80 80" xmlns="http://www.w3.org/2000/svg">

  <rect width="80" height="80" rx="18" fill="#1E1F22"></rect>

  <path d="
    M26 16
    C18 16 18 28 22 32
    C26 36 26 44 22 48
    C18 52 18 64 26 64
  " stroke="#C5C8CE" stroke-width="4" fill="none" stroke-linecap="round" stroke-linejoin="round"></path>

  <path d="
    M54 16
    C62 16 62 28 58 32
    C54 36 54 44 58 48
    C62 52 62 64 54 64
  " stroke="#C5C8CE" stroke-width="4" fill="none" stroke-linecap="round" stroke-linejoin="round"></path>

  <g transform="rotate(-18 40 40)">
    <rect x="36" y="18" width="6" height="34" rx="2" fill="#C8A165"></rect>
    <rect x="37" y="52" width="4" height="10" rx="1.5" fill="#8D6E3F"></rect>
  </g>

  <circle cx="40" cy="40" r="7" fill="#C94A4A"></circle>

  <path d="
    M40 33
    Q43 40 40 47
  " stroke="#F2F2F2" stroke-width="1.8" fill="none" stroke-linecap="round"></path>

</svg>
